<svg xmlns="http://www.w3.org/2000/svg" viewBox="0 0 369.32 80.74"><title>Asset 4</title><g id="Layer_2" data-name="Layer 2"><g id="Layer_1-2" data-name="Layer 1"><path d="M82.12,49.71h20.42V30.56H82.12V22h20.76V1.85H13.38L5.54,22H26.76L0,78.78H53.4l4.15-10.84V78.78h46.14V58.59H82.12ZM35.87,58.59l21.68-46v46Z"/><path d="M239.5,56.06a39.33,39.33,0,0,0,3.17-15.69,39.33,39.33,0,0,0-3.17-15.69A40.35,40.35,0,0,0,218,3.17a40.37,40.37,0,0,0-31.37,0,40.36,40.36,0,0,0-21.51,21.51q-.41,1-.77,1.93A27.58,27.58,0,0,0,162.11,19a26.45,26.45,0,0,0-7.21-9.4A31.81,31.81,0,0,0,144,3.81a45.73,45.73,0,0,0-13.67-2H103.8V78.78h24.57V59.29l11.53,19.49h28.83L154.32,53.4a24.92,24.92,0,0,0,5.19-5.08,26.67,26.67,0,0,0,2.58-4.42,38.8,38.8,0,0,0,3,12.15,40.36,40.36,0,0,0,21.51,21.51,40.37,40.37,0,0,0,31.37,0,40.76,40.76,0,0,0,12.86-8.65,40.14,40.14,0,0,0,6.75-9V78.78h24.68V59.52H237.83Q238.73,57.84,239.5,56.06ZM137.08,37.72a13.48,13.48,0,0,1-7.44,2h-1.27V22.61h1.27a13.5,13.5,0,0,1,7.44,2q3.06,2,3.06,6.57T137.08,37.72Zm80.11,8.94a16.21,16.21,0,0,1-8.59,8.59,16.21,16.21,0,0,1-12.57,0,16.2,16.2,0,0,1-8.59-8.59,16.2,16.2,0,0,1,0-12.57A16.19,16.19,0,0,1,196,25.49a16.2,16.2,0,0,1,12.57,0,16.2,16.2,0,0,1,8.59,8.59,16.22,16.22,0,0,1,0,12.57Z"/><path d="M366.15,24.68A40.35,40.35,0,0,0,344.63,3.17a40.37,40.37,0,0,0-31.37,0,40.36,40.36,0,0,0-21.51,21.51A38.64,38.64,0,0,0,289,34.17V1.85H263V78.78H289V46.57a38.63,38.63,0,0,0,2.71,9.49,40.35,40.35,0,0,0,21.51,21.51,40.37,40.37,0,0,0,31.37,0,40.35,40.35,0,0,0,21.51-21.51,39.32,39.32,0,0,0,3.17-15.69A39.32,39.32,0,0,0,366.15,24.68Zm-22.32,22a16.21,16.21,0,0,1-8.59,8.59,16.21,16.21,0,0,1-12.57,0,16.21,16.21,0,0,1-8.59-8.59,16.21,16.21,0,0,1,0-12.57,16.2,16.2,0,0,1,8.59-8.59,16.2,16.2,0,0,1,12.57,0,16.2,16.2,0,0,1,8.59,8.59,16.21,16.21,0,0,1,0,12.57Z"/></g></g></svg>